<svg xmlns="http://www.w3.org/2000/svg" viewBox="0 0 167.99 45.09">
  <g>
    <path d="M31.63,7.1h-22L8.32,1.36a2,2,0,0,0-3.86.89L5.58,7.1H2.3l-.18,0H2a1.54,1.54,0,0,0-1,.36,2.29,2.29,0,0,0,1.25,4.21l3,33h12A13.17,13.17,0,0,1,13.39,41H8.63L6,11.69h22l-.71,7.9H30.9l.71-7.9h0A2.3,2.3,0,1,0,32,7.11h-.38" fill="#f18815"/>
    <path d="M45,22.32H13.15v7.82A14.63,14.63,0,0,0,41,36.42,6.11,6.11,0,0,0,45,38c3.72,0,6.74-3.5,6.74-7.82s-3-7.82-6.74-7.82m-6.16,7.82a10.93,10.93,0,0,1-.56,3.45h0l0,.08a11,11,0,0,1-9.59,7.42l-.59,0h-.3a.89.89,0,0,1-.23,0c-.2,0-.39,0-.58,0a11,11,0,0,1-10.19-11V26H38.85Zm6.56,4.46c-1.69,0-3.07-2-3.07-4.36s1.38-4.35,3.07-4.35,3.07,1.95,3.07,4.35-1.37,4.36-3.07,4.36" fill="#5c120e"/>
    <g>
      <path d="M161.82,44.9A7.51,7.51,0,0,1,156,43.81a7.66,7.66,0,0,1-3.41-4.87,7.4,7.4,0,0,1,1.07-5.82,7.77,7.77,0,0,1,10.73-2.32h0a7.71,7.71,0,0,1,2.87,3.37,7.37,7.37,0,0,1,.58,4.39H155.13a5.07,5.07,0,0,0,2.26,3.16,4.93,4.93,0,0,0,3.91.75,5.14,5.14,0,0,0,3.29-2.27l2.11,1.37a7.52,7.52,0,0,1-4.88,3.33m1.24-12a5,5,0,0,0-4-.72,5.2,5.2,0,0,0-3.29,2.29,5.84,5.84,0,0,0-.67,1.59h10.2a5.1,5.1,0,0,0-2.26-3.16" fill="#902713"/>
      <path d="M84.43,44.91a7.45,7.45,0,0,1-5.77-1.1A7.6,7.6,0,0,1,75.25,39a7.35,7.35,0,0,1,1.07-5.82A7.77,7.77,0,0,1,87,30.8h0a7.64,7.64,0,0,1,2.87,3.39,7.37,7.37,0,0,1,.58,4.39H77.74A5.13,5.13,0,0,0,80,41.75a5,5,0,0,0,3.9.73,5,5,0,0,0,3.29-2.27l2.11,1.38a7.52,7.52,0,0,1-4.88,3.33m1.24-12a5,5,0,0,0-4-.73,5.18,5.18,0,0,0-3.31,2.29,5.72,5.72,0,0,0-.67,1.59h10.2a5.13,5.13,0,0,0-2.26-3.17" fill="#902713"/>
      <path d="M66.23,36.08l2,6.34,4.6-12.61h2.66l-5.46,15h-3.6L64.9,39.76l-1.57,5.06H59.72l-5.45-15h2.65l4.6,12.61,2-6.34Z" fill="#902713"/>
      <path d="M107.54,37.32a7.42,7.42,0,0,1-2.29,5.47A7.74,7.74,0,0,1,92,37.32V25.37h2.5v6.7a7.27,7.27,0,0,1,10.26-.72,6.63,6.63,0,0,1,.54.52,7.64,7.64,0,0,1,2.2,5.44m-2.51,0a5.3,5.3,0,0,0-5.24-5.24A5.23,5.23,0,1,0,105,37.31" fill="#902713"/>
      <path d="M118.91,40.72a4.07,4.07,0,0,1-1.3,3.06,4.43,4.43,0,0,1-5.82.33,4.17,4.17,0,0,1-1.54-2.41l2.41-.66a1.56,1.56,0,0,0,.23.62,1.75,1.75,0,0,0,.43.47,1.61,1.61,0,0,0,.56.31,1.55,1.55,0,0,0,.64.12,1.86,1.86,0,0,0,1.35-.54,1.78,1.78,0,0,0,.57-1.3c0-.8-.54-1.45-1.63-1.95l-2.18-1-.84-.4A3.94,3.94,0,0,1,110.16,34a4.35,4.35,0,0,1,7.08-3.44,4.07,4.07,0,0,1,1.54,2.4l-2.41.64a1.71,1.71,0,0,0-1.8-1.5,1.88,1.88,0,0,0-1.35.56,1.86,1.86,0,0,0-.56,1.34c0,.79.54,1.43,1.63,1.93l2.15,1,.85.43a3.92,3.92,0,0,1,1.63,3.37" fill="#902713"/>
      <path d="M143.51,37.32a7.74,7.74,0,1,1-7.75-7.76,7.74,7.74,0,0,1,7.75,7.76v0m-2.49,0a5,5,0,0,0-1.55-3.7,5.19,5.19,0,0,0-7.34-.06l-.06.06a5,5,0,0,0-1.56,3.7,5.26,5.26,0,0,0,10.51,0h0" fill="#902713"/>
      <path d="M152,29.58v2.85a4.59,4.59,0,0,0-4.39,4.77v7.62h-2.67V37.2A7.37,7.37,0,0,1,152,29.58" fill="#902713"/>
      <path d="M122.84,25.34v4.48h-2.49v2.52h2.49v12.5h2.5V32.32h2.5V29.81h-2.5V25.24a5.35,5.35,0,0,1-.68.11,8,8,0,0,1-1.83,0" fill="#902713"/>
    </g>
    <g>
      <path d="M59.35,23a7.47,7.47,0,0,1-5.76-.88,7.63,7.63,0,0,1-3.54-4.71,7.26,7.26,0,0,1,.86-5.8A7.48,7.48,0,0,1,55.63,8a7.36,7.36,0,0,1,5.84.87,8.1,8.1,0,0,1,2.34,2.14l-2.05,1.43A5.37,5.37,0,0,0,60.18,11a5,5,0,0,0-3.94-.59A5.13,5.13,0,0,0,53,12.83a5,5,0,0,0-.56,3.94A5.2,5.2,0,0,0,54.86,20a5,5,0,0,0,3.88.59,5.08,5.08,0,0,0,3.2-2.36l2.14,1.29A7.49,7.49,0,0,1,59.35,23" fill="#5c120e"/>
      <path d="M80.91,15.5a7.69,7.69,0,1,1-7.69-7.69h0a7.69,7.69,0,0,1,7.69,7.69m-2.47,0a5.21,5.21,0,1,0-8.88,3.67,5,5,0,0,0,3.66,1.53,5.1,5.1,0,0,0,3.68-1.53,5,5,0,0,0,1.52-3.67" fill="#5c120e"/>
      <path d="M87.13,6.75A3.82,3.82,0,0,0,86,9.54v1h2.49V13H86v9.92H83.5V13H82.25V10.55H83.5v-1a6.64,6.64,0,0,1,6.42-6.42V5.57a3.82,3.82,0,0,0-2.79,1.18" fill="#5c120e"/>
      <path d="M95.66,6.75a3.82,3.82,0,0,0-1.17,2.79v1H97V13H94.49v9.92H92V13H90.78V10.55H92v-1a6.64,6.64,0,0,1,6.42-6.42V5.57a3.85,3.85,0,0,0-2.8,1.18" fill="#5c120e"/>
      <path d="M125.38,23a7.44,7.44,0,0,1-5.73-1.09,7.61,7.61,0,0,1-3.38-4.82,7.32,7.32,0,0,1,1.07-5.77A7.67,7.67,0,0,1,128,9h0a7.67,7.67,0,0,1,2.86,3.34,7.39,7.39,0,0,1,.56,4.35H118.75A5,5,0,0,0,121,19.86a4.91,4.91,0,0,0,3.87.73,5,5,0,0,0,3.26-2.24l2.1,1.36a7.4,7.4,0,0,1-4.84,3.3m1.24-11.88a4.9,4.9,0,0,0-3.92-.71,5.09,5.09,0,0,0-3.28,2.27,5.46,5.46,0,0,0-.68,1.57h10.12a5,5,0,0,0-2.24-3.13" fill="#5c120e"/>
      <path d="M107.83,23a7.41,7.41,0,0,1-5.72-1.09,7.52,7.52,0,0,1-3.38-4.82,7.27,7.27,0,0,1,1.06-5.77A7.68,7.68,0,0,1,110.41,9h0a7.59,7.59,0,0,1,2.85,3.34,7.41,7.41,0,0,1,.58,4.35H101.2a5.06,5.06,0,0,0,2.24,3.14,4.93,4.93,0,0,0,3.88.73,5.06,5.06,0,0,0,3.26-2.24l2.1,1.36a7.44,7.44,0,0,1-4.85,3.3m1.24-11.89a4.9,4.9,0,0,0-3.92-.71,5.09,5.09,0,0,0-3.28,2.27,5.72,5.72,0,0,0-.67,1.57h10.11a5,5,0,0,0-2.24-3.13" fill="#5c120e"/>
    </g>
  </g>
</svg>
